<?xml version="1.0" encoding="utf-8"?>
<!-- Generator: Adobe Illustrator 28.2.0, SVG Export Plug-In . SVG Version: 6.00 Build 0)  -->
<svg version="1.1" id="Layer_1" xmlns="http://www.w3.org/2000/svg" xmlns:xlink="http://www.w3.org/1999/xlink" x="0px" y="0px"
	 viewBox="0 0 519.97 216" style="enable-background:new 0 0 519.97 216;" xml:space="preserve">
<style type="text/css">
	.st0{fill:#006BB5;}
	.st1{fill:#C32F58;}
	.st2{fill:#203064;}
</style>
<g>
	<path class="st0" d="M99.95,72.02c-2.99-0.45-6.01-0.97-8.97-1.72c-2.96-0.75-5.85-1.73-8.57-3.09c-2.77-1.38-5.5-3.27-7.44-5.65
		s-3.08-5.27-2.67-8.66c0.47-3.89,3.99-6.6,8.23-8.37c4.24-1.77,9.19-2.59,12.51-2.71c0.93-0.03,14.15-0.05,33.27-0.06
		s44.13-0.01,68.63-0.01c0.92,0,1.59-0.58,1.84-1.31c0.25-0.73,0.09-1.59-0.64-2.17l-23.98-18.86L148.18,0.55
		c-0.18-0.14-0.37-0.24-0.58-0.32c-0.21-0.07-0.43-0.11-0.65-0.11c-13.05,0.02-25.34,0.04-34.38,0.06S97.76,0.21,97.76,0.21l0,0l0,0
		C56.03,0.16,33.65,13.71,21.7,27.27S8.23,54.42,8.23,54.42c-0.83,9.52,0.67,18.56,4.24,26.71s9.22,15.39,16.68,21.31
		c6.88,5.46,14.62,9.71,22.75,13.11s16.65,5.96,25.09,8.05c3.57,0.88,7.17,1.68,10.78,2.4c3.61,0.73,7.23,1.39,10.86,2
		c2.18,0.37,4.45,0.9,6.72,1.37c2.27,0.47,4.56,0.87,6.76,1c1.32,0.08,2.41-0.25,3.45-0.76c1.04-0.51,2.02-1.21,3.11-1.88
		c4.1-2.49,8.7-3.37,13.35-3.24c4.65,0.13,9.35,1.28,13.64,2.85c3.03,1.11,5.98,2.47,8.81,4.02c2.84,1.55,5.57,3.28,8.19,5.14
		c0.31,0.22,0.62,0.45,0.92,0.68c0.3,0.23,0.61,0.47,0.91,0.7c0.7,0.54,1.68,1.35,2.06,2.02c0.38,0.67,0.15,1.2-1.57,1.18
		c-4.88-0.05-9.58,0.84-14.05,2.42c-4.47,1.58-8.72,3.86-12.7,6.57c-2.95,2.01-6.08,4.28-9.43,5.89c-3.35,1.61-6.9,2.56-10.7,1.94
		c-2.29-0.37-4.02-0.83-5.19-1.14s-1.78-0.48-1.8-0.27c-0.19,1.93-0.53,3.87-1.01,5.93c-0.48,2.06-1.11,4.22-1.9,6.57
		c-0.07,0.21-0.15,0.41-0.26,0.61c-0.1,0.2-0.22,0.38-0.37,0.55c-0.87,1.02-1.92,1.79-3.03,2.45s-2.31,1.23-3.45,1.86
		c-1.13,0.62-2.23,1.28-3.3,1.99c-1.08,0.7-2.12,1.45-3.14,2.23c-2.04,1.56-3.96,3.28-5.74,5.13c-1.78,1.85-3.43,3.84-4.91,5.93
		c-0.69,0.98-1.35,1.99-1.97,3.02c-0.62,1.03-1.2,2.09-1.74,3.16c-0.38,0.75-0.74,1.52-1.08,2.29c-0.34,0.77-0.66,1.55-0.95,2.34
		c-0.06,0.16-0.16,0.3-0.28,0.42c-0.12,0.11-0.27,0.19-0.44,0.23c-0.31,0.06-0.55-0.05-0.73-0.25c-0.18-0.2-0.31-0.47-0.41-0.72
		c-0.24-0.59-0.47-1.17-0.68-1.76c-0.21-0.59-0.41-1.18-0.59-1.79c-0.27-0.94-0.51-1.89-0.73-2.84s-0.43-1.91-0.65-2.86
		c-1.47-6.27-2.32-13.43-1.49-20.22c0.83-6.79,3.32-13.22,8.55-18.03c0.17-0.15,0.34-0.29,0.52-0.43s0.36-0.28,0.53-0.42
		c0.71-0.57,0.85-1.43,0.59-2.15c-0.26-0.72-0.92-1.29-1.83-1.3c0,0-16.27-0.08-34.24-0.17s-37.64-0.19-44.43-0.22
		c-0.63,0-1.18,0.29-1.53,0.74c-0.35,0.45-0.51,1.05-0.35,1.66c1.47,5.75,3.49,11.35,6.07,16.67s5.73,10.37,9.47,14.99
		c3.37,4.17,7.19,7.95,11.33,11.32c4.15,3.37,8.63,6.34,13.34,8.9c4.19,2.27,8.54,4.21,13,5.86c4.46,1.65,9.04,3,13.67,4.1
		c8.89,2.1,18.02,3.24,27.18,3.59s18.37-0.1,27.42-1.18c8.67-1.04,17.37-2.68,25.74-5.27c8.37-2.6,16.4-6.16,23.74-11.06
		c0.04-0.02,0.07-0.05,0.11-0.07c0.04-0.02,0.07-0.05,0.11-0.07c3.56-2.4,6.9-5.1,9.98-8.08c3.07-2.98,5.87-6.24,8.33-9.76
		c1.95-2.8,3.69-5.74,5.19-8.8c1.5-3.06,2.78-6.23,3.81-9.48c0.32-1,1.39-4.07,2.39-8.22c1-4.15,1.92-9.38,1.93-14.68
		c-0.32-5.33-0.99-8.83-1.58-11c-0.59-2.17-1.1-3-1.1-3c-6.63-21.73-31.69-35.03-55.09-42.9S99.95,72.02,99.95,72.02z"/>
	<path class="st0" d="M498,63.48l-31.7-24.94l-31.7-24.94c-0.64-0.5-1.43-0.53-2.05-0.22c-0.63,0.3-1.1,0.94-1.1,1.75v99.46v99.46
		c0,0.54,0.22,1.02,0.57,1.38c0.35,0.35,0.84,0.57,1.38,0.57h31.7h31.7c0.54,0,1.02-0.22,1.38-0.57c0.35-0.35,0.57-0.84,0.57-1.38
		v-74.52V65.01c0-0.3-0.07-0.59-0.2-0.85C498.42,63.9,498.23,63.66,498,63.48z"/>
	<g>
		<path class="st0" d="M512.42,200.82c2.1,0,3.99,0.84,5.35,2.21c1.36,1.37,2.2,3.27,2.2,5.38c0,2.13-0.84,4.03-2.2,5.39
			s-3.26,2.2-5.38,2.2c-2.1,0-4-0.83-5.38-2.2s-2.24-3.27-2.24-5.39c0-2.11,0.86-4.01,2.24-5.38s3.29-2.21,5.38-2.21h0.01H512.42z
			 M512.39,202c-1.69,0-3.22,0.72-4.33,1.87c-1.11,1.16-1.8,2.76-1.8,4.53c0,1.8,0.69,3.4,1.81,4.56c1.12,1.16,2.66,1.86,4.36,1.86
			c1.71,0.02,3.25-0.69,4.37-1.84c1.11-1.16,1.8-2.77,1.8-4.56c0-1.78-0.69-3.39-1.8-4.55s-2.66-1.88-4.37-1.88h-0.01H512.39z
			 M510.96,212.8h-0.68h-0.68v-4.22v-4.22c0.36-0.05,0.71-0.1,1.1-0.14c0.39-0.04,0.81-0.06,1.33-0.06c0.65,0,1.19,0.07,1.63,0.18
			s0.78,0.27,1.02,0.46c0.26,0.19,0.46,0.42,0.6,0.71c0.13,0.29,0.2,0.63,0.2,1.04c0,0.55-0.19,1-0.5,1.35s-0.73,0.58-1.18,0.71
			v0.03v0.03c0.38,0.07,0.69,0.27,0.94,0.61c0.24,0.34,0.41,0.82,0.5,1.45c0.11,0.65,0.21,1.11,0.3,1.43
			c0.09,0.32,0.17,0.52,0.24,0.65h-0.71h-0.71c-0.09-0.13-0.19-0.39-0.29-0.75c-0.1-0.36-0.2-0.83-0.3-1.38
			c-0.08-0.43-0.31-0.81-0.63-1.07s-0.74-0.42-1.18-0.42l-0.49,0h-0.49v1.81V212.8z M510.96,208.11h0.49h0.49
			c0.57,0,1.1-0.1,1.48-0.33c0.38-0.23,0.61-0.59,0.61-1.1c0-0.38-0.13-0.75-0.46-1.03s-0.85-0.46-1.63-0.46
			c-0.21,0-0.4,0.01-0.56,0.02s-0.3,0.03-0.42,0.05v1.43V208.11z"/>
	</g>
	<path class="st1" d="M440.69,0h28.05h28.05c0.54,0,1.02,0.22,1.38,0.57s0.57,0.84,0.57,1.38v22.09v22.09c0,0.81-0.47,1.45-1.1,1.75
		c-0.63,0.3-1.41,0.28-2.05-0.22l-28.05-22.09L439.48,3.47c-0.73-0.57-0.89-1.44-0.63-2.17C439.1,0.58,439.76,0,440.69,0z"/>
	<path class="st2" d="M283.97,214.05l-0.02-79.71l-0.02-79.71c0-0.54-0.22-1.02-0.57-1.38s-0.84-0.57-1.38-0.57h-31.04H219.9
		c-0.54,0-1.02,0.22-1.38,0.57c-0.35,0.35-0.57,0.84-0.57,1.38v79.71v79.71c0,0.54,0.22,1.02,0.57,1.38
		c0.35,0.35,0.84,0.57,1.38,0.57l31.07,0l31.07,0c0.54,0,1.02-0.22,1.38-0.57C283.76,215.08,283.98,214.59,283.97,214.05z"/>
	<path class="st0" d="M300.92,41.74c8.82,0,16.4,1.06,22.71,3.18c6.32,2.12,11.38,5.29,15.19,9.53c1.96,2.18,3.66,5.31,5.12,9.15
		s2.66,8.39,3.61,13.4c0.09,0.46,0.33,0.86,0.67,1.14c0.34,0.28,0.77,0.45,1.24,0.45l31.68,0l31.68,0c0.6,0,1.12-0.27,1.48-0.68
		c0.36-0.41,0.54-0.97,0.45-1.56c-1.56-10.02-4.13-19.38-8.13-28.05c-4.01-8.67-9.46-16.64-16.79-23.87
		c-12.4-12.22-26.15-18.33-40.05-21.38S321.84,0,308.85,0l-69.12,0.01L170.6,0.02c-0.92,0-1.59,0.58-1.84,1.31s-0.09,1.59,0.63,2.17
		l24.01,18.91l24.01,18.91c0.17,0.14,0.36,0.24,0.57,0.31c0.2,0.07,0.42,0.11,0.64,0.11h41.15H300.92z"/>
	<path class="st2" d="M351.45,89.53c-0.57,0-1.08,0.24-1.43,0.63c-0.35,0.39-0.55,0.91-0.5,1.48c0.24,2.76,0.42,5.57,0.55,8.41
		c0.12,2.84,0.18,5.72,0.18,8.59c0,8.67-0.43,16.13-1.28,22.4c-0.85,6.26-2.13,11.33-3.83,15.19c-1.71,3.86-3.74,7.15-6.1,9.86
		c-2.36,2.71-5.04,4.84-8.05,6.39c-3.01,1.55-7.04,2.71-12.11,3.48c-5.06,0.77-11.15,1.16-18.26,1.16h-1.88h-1.88
		c-0.54,0-1.02,0.22-1.38,0.57c-0.35,0.35-0.57,0.84-0.57,1.38v22.49v22.49c0,0.54,0.22,1.02,0.57,1.38
		c0.35,0.35,0.84,0.57,1.38,0.57l6,0l6,0c12.98,0,27.73-0.71,41.94-4.12c14.21-3.41,27.89-9.52,38.75-20.32
		c13.57-13.49,20.4-25.42,23.83-38.46s3.48-27.19,3.48-45.1c0-2.85-0.04-5.67-0.12-8.45c-0.08-2.78-0.21-5.51-0.38-8.21
		c-0.03-0.51-0.26-0.97-0.62-1.29s-0.82-0.52-1.34-0.52l-31.49,0L351.45,89.53z"/>
</g>
</svg>
